<svg width="100%" height="100%" viewBox="0 0 234 51" fill="none" xmlns="http://www.w3.org/2000/svg">
<path d="M50.66 10.2C50.5729 9.82366 50.4697 9.45395 50.3509 9.0909C49.4731 6.40255 47.7547 4.09407 45.506 2.47653C45.506 2.47653 45.506 2.47614 45.5052 2.47614C44.3203 1.62301 42.9877 0.962161 41.5534 0.53892C41.553 0.53892 41.553 0.538529 41.5526 0.538529C40.3665 0.187977 39.1105 0 37.8106 0C34.3391 0 31.1806 1.34124 28.8256 3.53366L28.8193 3.53952L11.9587 20.4C11.9587 20.4 4.37861 27.9926 4.2047 28.1543L4.19845 28.1602L3.53954 28.8191L3.53368 28.8254C3.02172 29.3752 2.55627 29.9689 2.14397 30.6C0.788259 32.6724 0 35.1494 0 37.8103C0 38.8386 0.117633 39.8394 0.340393 40.8C0.385727 40.9962 0.43575 41.1908 0.489682 41.3835C0.489682 41.3839 0.489682 41.3839 0.489682 41.3843C0.927386 42.9436 1.64491 44.386 2.5848 45.6542C4.19649 47.8302 6.462 49.4923 9.09058 50.3505C10.3806 50.7722 11.7586 51 13.1894 51H37.8102C44.0667 51 49.3055 46.6445 50.6596 40.8C50.8824 39.8394 51 38.8386 51 37.8103V13.1897C51 12.1614 50.8824 11.1606 50.6596 10.2H50.66ZM37.6758 30.6C37.2346 34.5995 33.8443 37.7099 29.728 37.7099C28.5219 37.7099 27.378 37.443 26.3529 36.965C25.7773 36.6966 25.2387 36.3616 24.7479 35.97C24.5118 35.7821 24.2867 35.5808 24.0737 35.3678C22.8228 34.1172 21.9849 32.454 21.7801 30.6C21.7481 30.3092 21.7316 30.0134 21.7316 29.7137C21.7316 29.1017 21.8004 28.5057 21.931 27.9328C22.6082 24.954 24.9488 22.6073 27.9248 21.9214C28.5043 21.7881 29.1077 21.7174 29.728 21.7174C31.936 21.7174 33.935 22.6123 35.3822 24.0595C35.5987 24.276 35.8027 24.505 35.993 24.745H35.9934C36.3846 25.2374 36.7187 25.7771 36.9864 26.3539C37.4601 27.3755 37.7243 28.5135 37.7243 29.7137C37.7243 30.0134 37.7079 30.3092 37.6758 30.6Z" fill="url(#paint0_linear_24_987)"/>
<path d="M60.2394 41V13.7H72.6414C75.6054 13.7 78.2184 14.272 80.4804 15.416C82.7424 16.534 84.5104 18.107 85.7844 20.135C87.0584 22.163 87.6954 24.568 87.6954 27.35C87.6954 30.106 87.0584 32.511 85.7844 34.565C84.5104 36.593 82.7424 38.179 80.4804 39.323C78.2184 40.441 75.6054 41 72.6414 41H60.2394ZM66.5574 35.813H72.3294C74.1494 35.813 75.7224 35.475 77.0484 34.799C78.4004 34.097 79.4404 33.109 80.1684 31.835C80.9224 30.561 81.2994 29.066 81.2994 27.35C81.2994 25.608 80.9224 24.113 80.1684 22.865C79.4404 21.591 78.4004 20.616 77.0484 19.94C75.7224 19.238 74.1494 18.887 72.3294 18.887H66.5574V35.813ZM98.2711 24.698H111.414V29.612H98.2711V24.698ZM98.7391 35.93H113.598V41H92.4601V13.7H113.091V18.77H98.7391V35.93ZM126.434 41L114.656 13.7H121.481L131.777 37.88H127.76L138.212 13.7H144.491L132.674 41H126.434ZM152.426 34.76L152.075 27.467L165.14 13.7H172.16L160.382 26.375L156.872 30.119L152.426 34.76ZM146.771 41V13.7H153.05V41H146.771ZM165.452 41L155.741 29.105L159.875 24.62L172.823 41H165.452ZM187.91 41.468C185.752 41.468 183.75 41.117 181.904 40.415C180.084 39.713 178.498 38.725 177.146 37.451C175.82 36.177 174.78 34.682 174.026 32.966C173.298 31.25 172.934 29.378 172.934 27.35C172.934 25.322 173.298 23.45 174.026 21.734C174.78 20.018 175.833 18.523 177.185 17.249C178.537 15.975 180.123 14.987 181.943 14.285C183.763 13.583 185.739 13.232 187.871 13.232C190.029 13.232 192.005 13.583 193.799 14.285C195.619 14.987 197.192 15.975 198.518 17.249C199.87 18.523 200.923 20.018 201.677 21.734C202.431 23.424 202.808 25.296 202.808 27.35C202.808 29.378 202.431 31.263 201.677 33.005C200.923 34.721 199.87 36.216 198.518 37.49C197.192 38.738 195.619 39.713 193.799 40.415C192.005 41.117 190.042 41.468 187.91 41.468ZM187.871 36.086C189.093 36.086 190.211 35.878 191.225 35.462C192.265 35.046 193.175 34.448 193.955 33.668C194.735 32.888 195.333 31.965 195.749 30.899C196.191 29.833 196.412 28.65 196.412 27.35C196.412 26.05 196.191 24.867 195.749 23.801C195.333 22.735 194.735 21.812 193.955 21.032C193.201 20.252 192.304 19.654 191.264 19.238C190.224 18.822 189.093 18.614 187.871 18.614C186.649 18.614 185.518 18.822 184.478 19.238C183.464 19.654 182.567 20.252 181.787 21.032C181.007 21.812 180.396 22.735 179.954 23.801C179.538 24.867 179.33 26.05 179.33 27.35C179.33 28.624 179.538 29.807 179.954 30.899C180.396 31.965 180.994 32.888 181.748 33.668C182.528 34.448 183.438 35.046 184.478 35.462C185.518 35.878 186.649 36.086 187.871 36.086ZM207.556 41V13.7H219.373C221.817 13.7 223.923 14.103 225.691 14.909C227.459 15.689 228.824 16.82 229.786 18.302C230.748 19.784 231.229 21.552 231.229 23.606C231.229 25.634 230.748 27.389 229.786 28.871C228.824 30.327 227.459 31.445 225.691 32.225C223.923 33.005 221.817 33.395 219.373 33.395H211.066L213.874 30.626V41H207.556ZM224.911 41L218.086 31.094H224.833L231.736 41H224.911ZM213.874 31.328L211.066 28.364H219.022C220.972 28.364 222.428 27.948 223.39 27.116C224.352 26.258 224.833 25.088 224.833 23.606C224.833 22.098 224.352 20.928 223.39 20.096C222.428 19.264 220.972 18.848 219.022 18.848H211.066L213.874 15.845V31.328Z" fill="#505156"/>
<defs>
<linearGradient id="paint0_linear_24_987" x1="25.5002" y1="19.2037" x2="25.5002" y2="51.621" gradientUnits="userSpaceOnUse">
<stop offset="0.37" stop-color="#FFC513"/>
<stop offset="0.54" stop-color="#FFC011"/>
<stop offset="0.74" stop-color="#FFB20B"/>
<stop offset="0.95" stop-color="#FF9C01"/>
<stop offset="0.98" stop-color="#FF9900"/>
</linearGradient>
</defs>
</svg>
